name C:\Users\u0150099\Documents\master_thesis\3dpredictsim\Results\debug\Fal_s1_mtj_sc_cspx10_oy_MTc_MTPm_k1_d01_MTJm_nl_MG_exp_table_d01_PF_Gefen2002_ls146_FDB_ig21.mot
datacolumns 130
datarows 4
range 1.02507270 1.05582488
endheader
time	pelvis_tilt	pelvis_list	pelvis_rotation	pelvis_tx	pelvis_ty	pelvis_tz	hip_flexion_l	hip_adduction_l	hip_rotation_l	hip_flexion_r	hip_adduction_r	hip_rotation_r	knee_angle_l	knee_angle_r	ankle_angle_l	ankle_angle_r	subtalar_angle_l	subtalar_angle_r	mtj_angle_l	mtj_angle_r	mtp_angle_l	mtp_angle_r	lumbar_extension	lumbar_bending	lumbar_rotation	arm_flex_l	arm_add_l	arm_rot_l	arm_flex_r	arm_add_r	arm_rot_r	elbow_flex_l	elbow_flex_r	pro_sup_l	pro_sup_r	glut_med1_l/activation	glut_med2_l/activation	glut_med3_l/activation	glut_min1_l/activation	glut_min2_l/activation	glut_min3_l/activation	semimem_l/activation	semiten_l/activation	bifemlh_l/activation	bifemsh_l/activation	sar_l/activation	add_long_l/activation	add_brev_l/activation	add_mag1_l/activation	add_mag2_l/activation	add_mag3_l/activation	tfl_l/activation	pect_l/activation	grac_l/activation	glut_max1_l/activation	glut_max2_l/activation	glut_max3_l/activation	iliacus_l/activation	psoas_l/activation	quad_fem_l/activation	gem_l/activation	peri_l/activation	rect_fem_l/activation	vas_med_l/activation	vas_int_l/activation	vas_lat_l/activation	med_gas_l/activation	lat_gas_l/activation	soleus_l/activation	tib_post_l/activation	flex_dig_l/activation	flex_hal_l/activation	tib_ant_l/activation	per_brev_l/activation	per_long_l/activation	per_tert_l/activation	ext_dig_l/activation	ext_hal_l/activation	FDB_l/activation	ercspn_l/activation	intobl_l/activation	extobl_l/activation	glut_med1_r/activation	glut_med2_r/activation	glut_med3_r/activation	glut_min1_r/activation	glut_min2_r/activation	glut_min3_r/activation	semimem_r/activation	semiten_r/activation	bifemlh_r/activation	bifemsh_r/activation	sar_r/activation	add_long_r/activation	add_brev_r/activation	add_mag1_r/activation	add_mag2_r/activation	add_mag3_r/activation	tfl_r/activation	pect_r/activation	grac_r/activation	glut_max1_r/activation	glut_max2_r/activation	glut_max3_r/activation	iliacus_r/activation	psoas_r/activation	quad_fem_r/activation	gem_r/activation	peri_r/activation	rect_fem_r/activation	vas_med_r/activation	vas_int_r/activation	vas_lat_r/activation	med_gas_r/activation	lat_gas_r/activation	soleus_r/activation	tib_post_r/activation	flex_dig_r/activation	flex_hal_r/activation	tib_ant_r/activation	per_brev_r/activation	per_long_r/activation	per_tert_r/activation	ext_dig_r/activation	ext_hal_r/activation	FDB_r/activation	ercspn_r/activation	intobl_r/activation	extobl_r/activation	
          1.02507270	         -2.92346240	         -1.44759145	          4.40386191	          1.36334669	          0.90578180	         -0.00469064	        -10.62174911	         -0.06479648	          2.00698627	         30.64763180	          0.83778129	         -8.27627367	        -22.36646352	        -18.35969233	          3.30336926	         -0.13749058	         14.95857602	         13.44545167	          6.81870922	          6.93644941	         16.41566631	          2.60634356	         -4.18310951	          0.77241137	         -1.68211512	          5.48667272	        -13.68800915	         19.19609174	         -5.53157127	        -13.52675849	          5.44773080	         36.40148307	         25.08754350	         86.51662706	         86.51662706	          0.15081578	          0.07330724	          0.05854543	          0.33384788	          0.22461346	          0.11211245	          0.05000384	          0.05000043	          0.05000052	          0.05000055	          0.09001655	          0.05000044	          0.05000044	          0.05000078	          0.05000221	          0.05000133	          0.62985809	          0.05000226	          0.05000102	          0.05002532	          0.05000895	          0.05000235	          0.13028577	          0.55210367	          0.05000086	          0.05000831	          0.05854562	          0.67561419	          0.16676641	          0.16520703	          0.13367255	          0.34448475	          0.59514158	          0.10666930	          0.63828113	          0.63149040	          0.98800794	          0.05517004	          0.53798047	          0.42908152	          0.05000038	          0.05000022	          0.05000550	          0.74396034	          0.05000031	          0.05000020	          0.05000019	          0.05000161	          0.05000330	          0.05000326	          0.05000884	          0.05000820	          0.05000676	          0.28264609	          0.08976894	          0.35144312	          0.12882289	          0.10790917	          0.11278412	          0.07346086	          0.06470237	          0.05001081	          0.14682770	          0.05000419	          0.05024291	          0.05338636	          0.05000413	          0.05000304	          0.11228325	          0.12881518	          0.12881560	          0.20412696	          0.09829240	          0.05684697	          0.05000066	          0.05000183	          0.05000147	          0.05000101	          0.06622425	          0.05307947	          0.05442547	          0.15695139	          0.05000153	          0.05000114	          0.79727455	          0.07919848	          0.05574214	          0.21491026	          0.74968565	          0.34595986	          0.77426618	          0.05854269	          0.12769326	          0.09396474	
          1.03532342	         -2.92782573	         -1.52890077	          4.66072191	          1.37957360	          0.90437449	         -0.00422554	        -11.81850033	         -0.42781909	          2.08971030	         30.70928802	          1.03324073	         -8.47520753	        -21.72315996	        -18.84316713	          1.72334124	         -0.35168413	         15.18430401	         13.31111321	          6.67873127	          6.97465946	         18.30671585	          2.13875520	         -4.03575185	          0.95407608	         -1.79509095	          5.24251271	        -13.64922910	         19.33041515	         -6.20528348	        -13.48272984	          4.91298162	         37.27694035	         24.54888677	         86.51662706	         86.51662706	          0.12880946	          0.06261092	          0.05000332	          0.28513424	          0.19183894	          0.09575392	          0.05000820	          0.05000111	          0.05000114	          0.05000096	          0.07688270	          0.09888804	          0.05005045	          0.05001205	          0.05001668	          0.05000904	          0.53803105	          0.05110962	          0.05000379	          0.05001889	          0.05001361	          0.05001171	          0.11127513	          0.56109174	          0.05000237	          0.05000297	          0.05000422	          0.57703166	          0.15105514	          0.14975734	          0.12229647	          0.33208579	          0.57009923	          0.10359730	          0.54514576	          0.62763411	          0.96247792	          0.12365146	          0.46299882	          0.37024149	          0.05000043	          0.05000025	          0.05000117	          0.63540460	          0.05000016	          0.05000044	          0.05000230	          0.05000055	          0.05000110	          0.05000292	          0.05000100	          0.05000132	          0.05000221	          0.24140374	          0.07902552	          0.31582078	          0.11002691	          0.11001240	          0.16063549	          0.06274630	          0.05527731	          0.05000298	          0.19673669	          0.05000300	          0.08129362	          0.18352503	          0.05000235	          0.05000097	          0.17010968	          0.11001962	          0.11001985	          0.21528175	          0.08395436	          0.05000108	          0.05000009	          0.05000016	          0.05000015	          0.05000011	          0.05656128	          0.05000090	          0.05854207	          0.20194572	          0.05000051	          0.05000055	          0.77568580	          0.07425864	          0.06333240	          0.18355162	          0.76133727	          0.36272384	          0.77981771	          0.05000049	          0.12178637	          0.08025405	
          1.04557415	         -2.92998613	         -1.61508387	          4.88958636	          1.39608795	          0.90293094	         -0.00372218	        -12.93816159	         -0.79700222	          2.18322192	         30.81273929	          1.21409181	         -8.63404501	        -21.21618232	        -20.08986737	         -0.00727298	         -0.77664628	         15.41953767	         13.06347525	          6.54316407	          7.08635362	         20.23836041	          1.59119726	         -3.87337901	          1.14824630	         -1.90425118	          4.91504332	        -13.60794427	         19.38048475	         -6.88836036	        -13.45497721	          4.55353713	         38.15429379	         24.01137372	         86.51662706	         86.51662706	          0.11001420	          0.05347588	          0.05001080	          0.24352870	          0.16384675	          0.08178249	          0.05000638	          0.05000062	          0.05000070	          0.05000064	          0.06566552	          0.19428526	          0.19746845	          0.12582869	          0.05004700	          0.05000767	          0.49519620	          0.08022621	          0.05000211	          0.05001167	          0.05000809	          0.05000814	          0.09503841	          0.53920346	          0.11678894	          0.06858643	          0.06854414	          0.49283353	          0.13970863	          0.13776524	          0.11476313	          0.30462675	          0.53010050	          0.09207801	          0.46560022	          0.69836849	          0.97434205	          0.34125923	          0.39543990	          0.31621728	          0.24740679	          0.05000025	          0.05000103	          0.54268878	          0.05000024	          0.05000154	          0.05000012	          0.05000201	          0.05000185	          0.05000056	          0.05854195	          0.05007361	          0.05000611	          0.20617904	          0.06749452	          0.26973742	          0.09397226	          0.09396035	          0.13719722	          0.18634235	          0.05688673	          0.10005352	          0.25395439	          0.05853934	          0.08025892	          0.15674625	          0.05000088	          0.14291332	          0.28574622	          0.09396609	          0.09396628	          0.43472068	          0.13916962	          0.07581739	          0.06854536	          0.05000047	          0.05000051	          0.05000053	          0.05000000	          0.05000002	          0.05000000	          0.31737286	          0.05000038	          0.05000037	          0.86567019	          0.06342315	          0.05409120	          0.15676850	          0.76558512	          0.52265928	          0.66602984	          0.05804562	          0.10401586	          0.06854376	
          1.05582488	         -2.92990829	         -1.69913166	          5.08534470	          1.41283850	          0.90142406	         -0.00322132	        -13.93950435	         -1.15319201	          2.28046057	         30.87863399	          1.33610711	         -8.72997923	        -20.92745963	        -21.94496846	         -1.81756312	         -0.95869564	         15.66953476	         12.59202799	          6.40577586	          7.11334851	         22.02014335	          0.84116095	         -3.69895586	          1.34974019	         -2.00567676	          4.50575621	        -13.57453146	         19.38409193	         -7.56919842	        -13.45107065	          4.36416631	         39.06149052	         23.47000516	         86.51662706	         86.51662706	          0.09396155	          0.05854196	          0.05854256	          0.20799409	          0.13993908	          0.06984956	          0.05000690	          0.05000495	          0.05001993	          0.05000072	          0.05608598	          0.28033183	          0.42554087	          0.36263346	          0.14997271	          0.13132701	          0.44265854	          0.06852836	          0.07415704	          0.05854210	          0.05854541	          0.07648963	          0.08117087	          0.57774178	          0.09985959	          0.05858047	          0.05854279	          0.42092115	          0.11932316	          0.11766333	          0.09801754	          0.27577761	          0.47182924	          0.08225492	          0.39766163	          0.82079813	          0.97282907	          0.59502274	          0.33773884	          0.27007606	          0.55292763	          0.05000039	          0.05000069	          0.46350168	          0.09551178	          0.05000055	          0.05963218	          0.05000284	          0.05000109	          0.08753735	          0.05000138	          0.05000078	          0.05000110	          0.17609419	          0.05764612	          0.23037837	          0.08026023	          0.08025027	          0.11717869	          0.29022097	          0.33608559	          0.30372460	          0.31194481	          0.05000182	          0.06855269	          0.13387495	          0.12369845	          0.23180056	          0.37924261	          0.08025499	          0.08025515	          0.45652043	          0.11886414	          0.06475550	          0.05854355	          0.05854261	          0.05854253	          0.05854240	          0.06854408	          0.06854493	          0.06854415	          0.27106306	          0.12881159	          0.11007948	          0.92020234	          0.06854066	          0.05854235	          0.34481058	          0.78440531	          0.44639498	          0.56884622	          0.05000006	          0.11001862	          0.05854216	
